<svg height="512pt" viewBox="0 -29 512 512" width="512pt" xmlns="http://www.w3.org/2000/svg"><path d="m466.78125 120.296875-210.78125-90.957031-210.78125 90.957031v314.367187c0 6.75 5.472656 12.222657 12.21875 12.222657h397.121094c6.75 0 12.222656-5.472657 12.222656-12.222657zm0 0" fill="#f8eed1"/><path d="m246.9375 33.25-201.71875 87.046875v314.367187c0 6.75 5.472656 12.222657 12.21875 12.222657h231.203125c-108.796875-61.042969-145.769531-223.191407-152.375-300.925781-.636719-7.46875 3.566406-14.507813 10.453125-17.46875l95.132812-40.960938c9.03125-3.886719 19.265626-3.886719 28.296876 0l196.632812 84.65625v-51.890625l-201.71875-87.046875c-6.007812-.878906-12.117188-.878906-18.125 0zm0 0" fill="#f0e3c0"/><path d="m454.5625 446.886719h-397.125c-6.746094 0-12.21875-5.472657-12.21875-12.222657v-28.382812h421.5625v28.382812c0 6.75-5.472656 12.222657-12.21875 12.222657zm0 0" fill="#ddaf89"/><path d="m45.21875 434.664062c0 6.75 5.472656 12.222657 12.21875 12.222657h231.203125c-19.144531-10.742188-36.070313-24.609375-50.992187-40.605469h-192.429688zm0 0" fill="#c9a07d"/><path d="m256 232.980469c-6.789062 0-13.175781-3.210938-17.230469-8.652344l-97.601562-131.074219 34.457031-25.660156 80.375 107.9375 80.375-107.9375 34.457031 25.660156-97.601562 131.074219c-4.054688 5.441406-10.441407 8.652344-17.230469 8.652344zm0 0" fill="#ddaf89"/><g fill="#c9a07d"><path d="m238.769531 224.328125c4.054688 5.441406 10.441407 8.648437 17.230469 8.648437s13.175781-3.207031 17.230469-8.648437l36.335937-48.796875h-107.132812zm0 0"/><path d="m309.054688 104.28125 40.5625 17.464844 21.214843-28.492188-34.457031-25.660156zm0 0"/><path d="m141.167969 93.253906 21.21875 28.492188 40.558593-17.464844-27.320312-36.6875zm0 0"/></g><path d="m45.21875 191.449219h421.5625v42.960937h-421.5625zm0 0" fill="#ddaf89"/><path d="m142.375 191.449219h-97.15625v42.960937h106.496094c-3.847656-14.980468-6.929688-29.445312-9.339844-42.960937zm0 0" fill="#c9a07d"/><path d="m212.054688 365.679688h-53.660157v-93.195313h53.660157c5.011718 0 9.078124 4.0625 9.078124 9.078125v75.039062c0 5.015626-4.066406 9.078126-9.078124 9.078126zm0 0" fill="#9cd6e3"/><path d="m162.945312 272.484375h-4.550781v93.195313h48.019531c-18.632812-29.097657-32.832031-61.4375-43.46875-93.195313zm0 0" fill="#8bc7d6"/><path d="m158.398438 365.679688h-53.660157c-5.011719 0-9.078125-4.0625-9.078125-9.078126v-75.039062c0-5.015625 4.066406-9.078125 9.078125-9.078125h53.660157zm0 0" fill="#ddaf89"/><path d="m401.289062 284.476562h-96.105468c-5.214844 0-9.445313 4.226563-9.445313 9.445313v152.964844h114.992188v-152.964844c.003906-5.21875-4.226563-9.445313-9.441407-9.445313zm0 0" fill="#ad9386"/><path d="m334.070312 284.476562h38.332032v162.410157h-38.332032zm0 0" fill="#998377"/><path d="m295.738281 346.65625h114.996094v38.046875h-114.996094zm0 0" fill="#ddaf89"/><path d="m26.574219 155.105469 215.277343-92.679688c9.03125-3.890625 19.265626-3.890625 28.296876 0l215.277343 92.679688c9.019531 3.886719 19.074219-2.730469 19.074219-12.554688v-17.039062c0-10.09375-6.007812-19.214844-15.273438-23.207031l-208.367187-89.707032c-15.867187-6.832031-33.851563-6.832031-49.71875 0l-208.367187 89.707032c-9.265626 3.992187-15.273438 13.113281-15.273438 23.207031v17.039062c0 9.820313 10.054688 16.4375 19.074219 12.554688zm0 0" fill="#7dad91"/><path d="m26.574219 155.105469 194.550781-83.757813c-15.03125-9.371094-14.621094-33.574218-6.863281-51.484375l-191.488281 82.441407c-9.265626 3.992187-15.273438 13.113281-15.273438 23.207031v17.039062c0 9.824219 10.054688 16.4375 19.074219 12.554688zm0 0" fill="#6e9981"/><path d="m492.191406 95.414062-208.367187-89.703124c-17.683594-7.613282-37.964844-7.613282-55.648438 0l-119.929687 51.632812c-3.804688 1.636719-5.5625 6.046875-3.921875 9.851562 1.636719 3.804688 6.050781 5.5625 9.851562 3.921876l119.929688-51.632813c13.914062-5.988281 29.875-5.988281 43.789062 0l208.363281 89.707031c6.527344 2.8125 10.742188 9.214844 10.742188 16.320313v17.039062c0 3-1.941406 4.601563-2.777344 5.152344-.835937.550781-3.078125 1.695313-5.832031.515625l-18.652344-8.03125c-.023437-.011719-.046875-.019531-.066406-.03125l-196.558594-84.621094c-10.875-4.683594-23.351562-4.683594-34.226562 0l-196.558594 84.621094c-.019531.011719-.042969.019531-.066406.03125l-18.652344 8.03125c-2.757813 1.183594-4.996094.035156-5.832031-.515625-.835938-.550781-2.777344-2.152344-2.777344-5.152344v-17.039062c0-7.105469 4.214844-13.511719 10.742188-16.320313l56.023437-24.117187c3.800781-1.636719 5.558594-6.050781 3.921875-9.855469s-6.050781-5.558594-9.855469-3.921875l-56.023437 24.117187c-12.03125 5.179688-19.808594 16.992188-19.808594 30.097657v17.039062c0 7.144531 3.5625 13.753907 9.53125 17.683594 5.96875 3.925781 13.449219 4.585937 20.011719 1.761719l8.175781-3.523438v276.191406c0 10.875 8.847656 19.722657 19.722656 19.722657h238.277344.019531.019531 114.953126.019531.019531 43.808594c10.875 0 19.71875-8.847657 19.71875-19.722657v-64.804687c0-4.140625-3.355469-7.5-7.5-7.5-4.140625 0-7.5 3.359375-7.5 7.5v28.925781h-41.046875v-104.863281c0-9.34375-7.601563-16.945313-16.945313-16.945313h-96.101562c-9.34375 0-16.945313 7.601563-16.945313 16.945313v104.859375h-235.519531v-156.871094h406.5625v92.792969c0 4.140625 3.359375 7.5 7.5 7.5s7.5-3.359375 7.5-7.5v-176.230469l8.179688 3.523438c2.691406 1.160156 5.542968 1.730468 8.378906 1.730468 4.070312 0 8.113281-1.179687 11.628906-3.492187 5.96875-3.929687 9.53125-10.539063 9.53125-17.683594v-17.039062c0-13.105469-7.777344-24.917969-19.808594-30.097657zm-73.957031 318.367188h41.046875v20.882812c0 2.601563-2.117188 4.722657-4.71875 4.722657h-36.328125zm-114.996094-119.859375c0-1.074219.875-1.945313 1.945313-1.945313h96.105468c1.070313 0 1.945313.871094 1.945313 1.945313v45.234375h-99.996094zm0 60.234375h99.996094v23.046875h-99.996094zm0 38.046875h99.996094v47.183594h-99.996094zm-15 21.578125v25.605469h-230.796875c-2.605468 0-4.722656-2.117188-4.722656-4.722657v-20.882812zm-43.421875-344.46875c7.109375-3.058594 15.257813-3.058594 22.363282 0l44.347656 19.09375-55.527344 74.566406-55.527344-74.570312zm-58.503906 25.1875 63.671875 85.511719c1.414063 1.898437 3.644531 3.019531 6.015625 3.019531s4.601562-1.121094 6.015625-3.019531l63.671875-85.511719 26.402344 11.367188-58.144532 78.082031h-75.890624l-58.144532-78.082031zm-133.59375 57.515625 93.03125-40.050781 53.601562 71.984375h-146.632812zm406.5625 74.894531h-406.5625v-27.960937h406.5625zm0-42.960937h-146.632812l53.601562-71.984375 93.03125 40.050781zm-354.542969 81.035156c-9.140625 0-16.578125 7.4375-16.578125 16.578125v75.039062c0 9.144532 7.4375 16.578126 16.578125 16.578126h107.316407c9.140624 0 16.578124-7.433594 16.578124-16.578126v-75.039062c0-9.144531-7.4375-16.578125-16.578124-16.578125zm46.15625 93.195313h-46.15625c-.867187 0-1.578125-.707032-1.578125-1.578126v-14.265624h47.738282v15.84375zm0-30.84375h-47.734375v-16.507813h47.734375zm0-31.507813h-47.734375v-14.269531c0-.867188.707032-1.578125 1.578125-1.578125h46.15625zm62.738281-14.265625v75.039062c0 .871094-.707031 1.578126-1.578124 1.578126h-46.15625v-78.195313h46.15625c.871093 0 1.578124.707031 1.578124 1.578125zm0 0"/></svg>